<svg xmlns="http://www.w3.org/2000/svg" width="20" height="20" viewBox="0 0 20 20" fill="none">
<path fill-rule="evenodd" clip-rule="evenodd" d="M4.12783 1.875H15.8728C16.4287 1.875 16.9037 1.875 17.2837 1.9225C17.6862 1.97333 18.0753 2.0875 18.3953 2.3875C18.7203 2.69333 18.8495 3.07417 18.9062 3.47C18.9587 3.83417 18.9587 4.28667 18.9587 4.80333L18.9587 5.45C18.9587 5.8575 18.9587 6.20833 18.9287 6.5025C18.8953 6.81917 18.8245 7.115 18.6528 7.39917C18.482 7.68167 18.2528 7.88667 17.9878 8.07C17.7387 8.24333 17.4212 8.4225 17.0462 8.63333L14.5945 10.0133C14.0362 10.3275 13.842 10.4408 13.712 10.5533C13.4145 10.8117 13.2437 11.0992 13.1637 11.4583C13.1295 11.6125 13.1253 11.8058 13.1253 12.3942L13.1253 14.6708C13.1253 15.4217 13.1253 16.0592 13.0478 16.55C12.9662 17.0708 12.7753 17.5708 12.2753 17.8833C11.7862 18.1892 11.2487 18.1608 10.7253 18.0367C10.2212 17.9175 9.60033 17.6742 8.85533 17.3833L8.78366 17.355C8.43366 17.2183 8.12866 17.0992 7.88699 16.9742C7.62699 16.84 7.38533 16.6733 7.20116 16.4133C7.01366 16.15 6.93949 15.8683 6.90533 15.58C6.87533 15.3175 6.87533 15.0025 6.87533 14.6508L6.87533 12.3942C6.87533 11.8058 6.87199 11.6125 6.83699 11.4583C6.76152 11.1035 6.56828 10.7845 6.28866 10.5533C6.15866 10.4408 5.96366 10.3275 5.40616 10.0133L2.95449 8.63333C2.57949 8.4225 2.26199 8.24333 2.01283 8.07C1.74783 7.88667 1.51866 7.68167 1.34783 7.39917C1.17616 7.115 1.10533 6.81833 1.07283 6.5025C1.04199 6.20917 1.04199 5.8575 1.04199 5.45L1.04199 4.80333C1.04199 4.28667 1.04199 3.83417 1.09449 3.47C1.15116 3.07417 1.28033 2.69333 1.60533 2.3875C1.92533 2.0875 2.31366 1.97333 2.71699 1.9225C3.09699 1.875 3.57199 1.875 4.12783 1.875ZM2.87366 3.16333C2.59533 3.19833 2.50699 3.255 2.46116 3.29917C2.41949 3.3375 2.36616 3.405 2.33116 3.6475C2.29366 3.9125 2.29199 4.27417 2.29199 4.84583L2.29199 5.42083C2.29199 5.86583 2.29199 6.1525 2.31533 6.37417C2.33699 6.58 2.37366 6.67917 2.41866 6.75333C2.46449 6.82917 2.54116 6.915 2.72533 7.04333C2.92033 7.17833 3.18616 7.32917 3.59199 7.5575L6.01949 8.92417L6.08616 8.96167C6.55283 9.22417 6.86949 9.4025 7.10783 9.60917C7.58984 10.0158 7.92385 10.5704 8.05783 11.1867C8.12533 11.4925 8.12533 11.8367 8.12533 12.32L8.12533 14.6192C8.12533 15.0125 8.12616 15.2542 8.14783 15.4358C8.16616 15.6008 8.19699 15.6567 8.21949 15.6892C8.24449 15.7242 8.29449 15.7783 8.46033 15.8642C8.63699 15.955 8.88116 16.0508 9.26616 16.2017C10.067 16.515 10.6062 16.7242 11.0137 16.8208C11.4128 16.9158 11.5445 16.8667 11.612 16.8242C11.6687 16.7883 11.7562 16.7158 11.8137 16.355C11.8737 15.9742 11.8753 15.4358 11.8753 14.6183L11.8753 12.32C11.8753 11.8367 11.8753 11.4925 11.9437 11.1867C12.0774 10.5705 12.4111 10.0159 12.8928 9.60917C13.1312 9.4025 13.4487 9.22333 13.9137 8.96167L13.9812 8.92417L16.4087 7.5575C16.8145 7.32917 17.0803 7.17833 17.2753 7.04333C17.4595 6.915 17.5362 6.82917 17.582 6.75333C17.627 6.67917 17.6637 6.58 17.6845 6.37417C17.7078 6.1525 17.7087 5.86583 17.7087 5.42L17.7087 4.845C17.7087 4.27417 17.707 3.91167 17.6695 3.6475C17.6345 3.405 17.5803 3.3375 17.5403 3.29917C17.4937 3.25583 17.4053 3.19833 17.127 3.16333C16.8353 3.12583 16.4395 3.125 15.8337 3.125H4.16699C3.56116 3.125 3.16616 3.12583 2.87366 3.16333Z" fill="#2B2B2B"/>
</svg>