<svg xmlns="http://www.w3.org/2000/svg" width="22" height="22" viewBox="0 0 22 22" fill="none">
<path d="M9.18179 18.454C9.18756 18.577 9.16833 18.6998 9.12525 18.8151C9.08217 18.9304 9.01614 19.0358 8.93117 19.1249C8.84619 19.2139 8.74403 19.2848 8.63087 19.3332C8.5177 19.3817 8.39589 19.4066 8.27279 19.4066C8.1497 19.4066 8.02789 19.3817 7.91472 19.3332C7.80156 19.2848 7.6994 19.2139 7.61442 19.1249C7.52944 19.0358 7.46342 18.9304 7.42034 18.8151C7.37726 18.6998 7.35802 18.577 7.36379 18.454C7.37476 18.2203 7.47532 17.9998 7.64459 17.8383C7.81386 17.6768 8.03883 17.5866 8.27279 17.5866C8.50676 17.5866 8.73173 17.6768 8.901 17.8383C9.07027 17.9998 9.17083 18.2203 9.18179 18.454ZM16.4538 18.454C16.4596 18.577 16.4403 18.6998 16.3972 18.8151C16.3542 18.9304 16.2881 19.0358 16.2032 19.1249C16.1182 19.2139 16.016 19.2848 15.9029 19.3332C15.7897 19.3817 15.6679 19.4066 15.5448 19.4066C15.4217 19.4066 15.2999 19.3817 15.1867 19.3332C15.0736 19.2848 14.9714 19.2139 14.8864 19.1249C14.8014 19.0358 14.7354 18.9304 14.6923 18.8151C14.6493 18.6998 14.63 18.577 14.6358 18.454C14.6436 18.218 14.7429 17.9943 14.9126 17.8301C15.0823 17.6659 15.3092 17.5742 15.5453 17.5742C15.7814 17.5742 16.0083 17.6659 16.178 17.8301C16.3477 17.9943 16.446 18.218 16.4538 18.454Z" fill="white"/>
<path d="M5.336 6.636H21L17.364 14.818H6.909L4.636 3H1M9.182 18.454C9.18777 18.577 9.16853 18.6998 9.12545 18.8151C9.08238 18.9304 9.01635 19.0358 8.93137 19.1249C8.8464 19.2139 8.74424 19.2848 8.63107 19.3332C8.51791 19.3817 8.39609 19.4067 8.273 19.4067C8.14991 19.4067 8.02809 19.3817 7.91493 19.3332C7.80176 19.2848 7.6996 19.2139 7.61463 19.1249C7.52965 19.0358 7.46363 18.9304 7.42055 18.8151C7.37747 18.6998 7.35823 18.577 7.364 18.454C7.37497 18.2203 7.47552 17.9998 7.64479 17.8383C7.81406 17.6768 8.03904 17.5866 8.273 17.5866C8.50696 17.5866 8.73194 17.6768 8.90121 17.8383C9.07048 17.9998 9.17103 18.2203 9.182 18.454ZM16.454 18.454C16.4598 18.577 16.4405 18.6998 16.3975 18.8151C16.3544 18.9304 16.2883 19.0358 16.2034 19.1249C16.1184 19.2139 16.0162 19.2848 15.9031 19.3332C15.7899 19.3817 15.6681 19.4067 15.545 19.4067C15.4219 19.4067 15.3001 19.3817 15.1869 19.3332C15.0738 19.2848 14.9716 19.2139 14.8866 19.1249C14.8016 19.0358 14.7356 18.9304 14.6925 18.8151C14.6495 18.6998 14.6302 18.577 14.636 18.454C14.6438 18.218 14.7431 17.9943 14.9128 17.8301C15.0825 17.6659 15.3094 17.5742 15.5455 17.5742C15.7816 17.5742 16.0085 17.6659 16.1782 17.8301C16.3479 17.9943 16.4462 18.218 16.454 18.454Z" stroke="white" stroke-width="2" stroke-linecap="round" stroke-linejoin="round"/>
</svg>